  0
SECTION
  2
HEADER
  9
$ACADVER
  1
AC1009
  9
$INSBASE
 10
0.0
 20
0.0
 30
0.0
  9
$EXTMIN
 10
0.0
 20
0.0
 30
0.0
  9
$EXTMAX
 10
0.0
 20
0.0
 30
0.0
  0
ENDSEC
  0
SECTION
  2
TABLES
  0
TABLE
  2
VPORT
 70
0
  0
ENDTAB
  0
TABLE
  2
LTYPE
 70
1
  0
LTYPE
  2
CONTINUOUS
 70
0
  3
Solid line
 72
65
 73
0
 40
0.0
  0
ENDTAB
  0
TABLE
  2
LAYER
 70
1
  0
LAYER
  2
0
 70
64
 62
7
  6
continuous
  0
ENDTAB
  0
TABLE
  2
STYLE
 70
1
  0
STYLE
  2
STANDARD
 70
0
 40
0
 41
1.0
 50
0.0
 71
0
 42
1
 3
ARIAL.TTF
 4

  0
ENDTAB
  0
TABLE
  2
VIEW
 70
0
  0
ENDTAB
  0
ENDSEC
  0
SECTION
  2
BLOCKS
  0
BLOCK
  8
0
  2
SPACE_INVADER_EARRINGS_REPAIRED2Z001001001
 70
0
 10
0.0
 20
0.0
 30
0.0
  3
SPACE_INVADER_EARRINGS_REPAIRED2Z001001001
  0
LINE
  8
0
 62
0
 10
36.3158988953
 20
32.8936042786
 30
0.0
 11
33.8158988953
 21
32.8936042786
 31
0.0
  0
LINE
  8
0
 62
0
 10
46.3158988953
 20
45.3936042786
 30
0.0
 11
53.8158988953
 21
45.3936042786
 31
0.0
  0
LINE
  8
0
 62
0
 10
46.3158988953
 20
50.3936042786
 30
0.0
 11
46.3158988953
 21
45.3936042786
 31
0.0
  0
LINE
  8
0
 62
0
 10
42.5658988953
 20
50.3936042786
 30
0.0
 11
46.3158988953
 21
50.3936042786
 31
0.0
  0
LINE
  8
0
 62
0
 10
42.5658988953
 20
52.8936042786
 30
0.0
 11
42.5658988953
 21
50.3936042786
 31
0.0
  0
LINE
  8
0
 62
0
 10
38.8158988953
 20
52.8936042786
 30
0.0
 11
42.5658988953
 21
52.8936042786
 31
0.0
  0
LINE
  8
0
 62
0
 10
38.8158988953
 20
50.3936042786
 30
0.0
 11
38.8158988953
 21
52.8936042786
 31
0.0
  0
LINE
  8
0
 62
0
 10
41.3158988953
 20
50.3936042786
 30
0.0
 11
38.8158988953
 21
50.3936042786
 31
0.0
  0
LINE
  8
0
 62
0
 10
41.3158988953
 20
47.8936042786
 30
0.0
 11
41.3158988953
 21
50.3936042786
 31
0.0
  0
LINE
  8
0
 62
0
 10
43.8158988953
 20
47.8936042786
 30
0.0
 11
41.3158988953
 21
47.8936042786
 31
0.0
  0
LINE
  8
0
 62
0
 10
43.8158988953
 20
45.3936042786
 30
0.0
 11
43.8158988953
 21
47.8936042786
 31
0.0
  0
LINE
  8
0
 62
0
 10
38.8158988953
 20
45.3936042786
 30
0.0
 11
43.8158988953
 21
45.3936042786
 31
0.0
  0
LINE
  8
0
 62
0
 10
38.8158988953
 20
42.8936042786
 30
0.0
 11
38.8158988953
 21
45.3936042786
 31
0.0
  0
LINE
  8
0
 62
0
 10
36.3158988953
 20
42.8936042786
 30
0.0
 11
38.8158988953
 21
42.8936042786
 31
0.0
  0
LINE
  8
0
 62
0
 10
36.3158988953
 20
40.3936042786
 30
0.0
 11
36.3158988953
 21
42.8936042786
 31
0.0
  0
LINE
  8
0
 62
0
 10
33.8158988953
 20
40.3936042786
 30
0.0
 11
36.3158988953
 21
40.3936042786
 31
0.0
  0
LINE
  8
0
 62
0
 10
33.8158988953
 20
32.8936042786
 30
0.0
 11
33.8158988953
 21
40.3936042786
 31
0.0
  0
LINE
  8
0
 62
0
 10
36.3158988953
 20
37.8936042786
 30
0.0
 11
36.3158988953
 21
32.8936042786
 31
0.0
  0
LINE
  8
0
 62
0
 10
38.8158988953
 20
37.8936042786
 30
0.0
 11
36.3158988953
 21
37.8936042786
 31
0.0
  0
LINE
  8
0
 62
0
 10
38.8158988953
 20
32.8936042786
 30
0.0
 11
38.8158988953
 21
37.8936042786
 31
0.0
  0
LINE
  8
0
 62
0
 10
41.3158988953
 20
32.8936042786
 30
0.0
 11
38.8158988953
 21
32.8936042786
 31
0.0
  0
LINE
  8
0
 62
0
 10
41.3158988953
 20
30.3936042786
 30
0.0
 11
41.3158988953
 21
32.8936042786
 31
0.0
  0
LINE
  8
0
 62
0
 10
48.8158988953
 20
30.3936042786
 30
0.0
 11
41.3158988953
 21
30.3936042786
 31
0.0
  0
LINE
  8
0
 62
0
 10
48.8158988953
 20
32.8936042786
 30
0.0
 11
48.8158988953
 21
30.3936042786
 31
0.0
  0
LINE
  8
0
 62
0
 10
43.8158988953
 20
32.8936042786
 30
0.0
 11
48.8158988953
 21
32.8936042786
 31
0.0
  0
LINE
  8
0
 62
0
 10
43.8158988953
 20
35.3936042786
 30
0.0
 11
43.8158988953
 21
32.8936042786
 31
0.0
  0
LINE
  8
0
 62
0
 10
56.3158988953
 20
35.3936042786
 30
0.0
 11
43.8158988953
 21
35.3936042786
 31
0.0
  0
LINE
  8
0
 62
0
 10
56.3158988953
 20
32.8936042786
 30
0.0
 11
56.3158988953
 21
35.3936042786
 31
0.0
  0
LINE
  8
0
 62
0
 10
51.3158988953
 20
32.8936042786
 30
0.0
 11
56.3158988953
 21
32.8936042786
 31
0.0
  0
LINE
  8
0
 62
0
 10
51.3158988953
 20
30.3936042786
 30
0.0
 11
51.3158988953
 21
32.8936042786
 31
0.0
  0
LINE
  8
0
 62
0
 10
58.8158988953
 20
30.3936042786
 30
0.0
 11
51.3158988953
 21
30.3936042786
 31
0.0
  0
LINE
  8
0
 62
0
 10
58.8158988953
 20
32.8936042786
 30
0.0
 11
58.8158988953
 21
30.3936042786
 31
0.0
  0
LINE
  8
0
 62
0
 10
61.3158988953
 20
32.8936042786
 30
0.0
 11
58.8158988953
 21
32.8936042786
 31
0.0
  0
LINE
  8
0
 62
0
 10
61.3158988953
 20
37.8936042786
 30
0.0
 11
61.3158988953
 21
32.8936042786
 31
0.0
  0
LINE
  8
0
 62
0
 10
63.8158988953
 20
37.8936042786
 30
0.0
 11
61.3158988953
 21
37.8936042786
 31
0.0
  0
LINE
  8
0
 62
0
 10
63.8158988953
 20
32.8936042786
 30
0.0
 11
63.8158988953
 21
37.8936042786
 31
0.0
  0
LINE
  8
0
 62
0
 10
66.31590271
 20
32.8936042786
 30
0.0
 11
63.8158988953
 21
32.8936042786
 31
0.0
  0
LINE
  8
0
 62
0
 10
66.31590271
 20
40.3936042786
 30
0.0
 11
66.31590271
 21
32.8936042786
 31
0.0
  0
LINE
  8
0
 62
0
 10
63.8158988953
 20
40.3936042786
 30
0.0
 11
66.31590271
 21
40.3936042786
 31
0.0
  0
LINE
  8
0
 62
0
 10
63.8158988953
 20
42.8936042786
 30
0.0
 11
63.8158988953
 21
40.3936042786
 31
0.0
  0
LINE
  8
0
 62
0
 10
61.3158988953
 20
42.8936042786
 30
0.0
 11
63.8158988953
 21
42.8936042786
 31
0.0
  0
LINE
  8
0
 62
0
 10
61.3158988953
 20
45.3936042786
 30
0.0
 11
61.3158988953
 21
42.8936042786
 31
0.0
  0
LINE
  8
0
 62
0
 10
56.3158988953
 20
45.3936042786
 30
0.0
 11
61.3158988953
 21
45.3936042786
 31
0.0
  0
LINE
  8
0
 62
0
 10
56.3158988953
 20
47.8936042786
 30
0.0
 11
56.3158988953
 21
45.3936042786
 31
0.0
  0
LINE
  8
0
 62
0
 10
58.8158988953
 20
47.8936042786
 30
0.0
 11
56.3158988953
 21
47.8936042786
 31
0.0
  0
LINE
  8
0
 62
0
 10
58.8158988953
 20
50.3936042786
 30
0.0
 11
58.8158988953
 21
47.8936042786
 31
0.0
  0
LINE
  8
0
 62
0
 10
61.3158988953
 20
50.3936042786
 30
0.0
 11
58.8158988953
 21
50.3936042786
 31
0.0
  0
LINE
  8
0
 62
0
 10
61.3158988953
 20
52.8936042786
 30
0.0
 11
61.3158988953
 21
50.3936042786
 31
0.0
  0
LINE
  8
0
 62
0
 10
57.5658988953
 20
52.8936042786
 30
0.0
 11
61.3158988953
 21
52.8936042786
 31
0.0
  0
LINE
  8
0
 62
0
 10
57.5658988953
 20
50.3936042786
 30
0.0
 11
57.5658988953
 21
52.8936042786
 31
0.0
  0
LINE
  8
0
 62
0
 10
53.8158988953
 20
50.3936042786
 30
0.0
 11
57.5658988953
 21
50.3936042786
 31
0.0
  0
LINE
  8
0
 62
0
 10
53.8158988953
 20
45.3936042786
 30
0.0
 11
53.8158988953
 21
50.3936042786
 31
0.0
  0
LINE
  8
0
 62
0
 10
43.8158988953
 20
40.3936042786
 30
0.0
 11
43.8158988953
 21
42.8936042786
 31
0.0
  0
LINE
  8
0
 62
0
 10
46.3158988953
 20
40.3936042786
 30
0.0
 11
43.8158988953
 21
40.3936042786
 31
0.0
  0
LINE
  8
0
 62
0
 10
46.3158988953
 20
42.8936042786
 30
0.0
 11
46.3158988953
 21
40.3936042786
 31
0.0
  0
LINE
  8
0
 62
0
 10
43.8158988953
 20
42.8936042786
 30
0.0
 11
46.3158988953
 21
42.8936042786
 31
0.0
  0
LINE
  8
0
 62
0
 10
56.3158988953
 20
40.3936042786
 30
0.0
 11
53.8158988953
 21
40.3936042786
 31
0.0
  0
LINE
  8
0
 62
0
 10
56.3158988953
 20
42.8936042786
 30
0.0
 11
56.3158988953
 21
40.3936042786
 31
0.0
  0
LINE
  8
0
 62
0
 10
53.8158988953
 20
42.8936042786
 30
0.0
 11
56.3158988953
 21
42.8936042786
 31
0.0
  0
LINE
  8
0
 62
0
 10
53.8158988953
 20
40.3936042786
 30
0.0
 11
53.8158988953
 21
42.8936042786
 31
0.0
  0
LINE
  8
0
 62
0
 10
48.4847602844
 20
45.3936042786
 30
0.0
 11
48.3817062378
 21
45.6682243347
 31
0.0
  0
LINE
  8
0
 62
0
 10
48.3817062378
 20
45.6682243347
 30
0.0
 11
48.3259620667
 21
45.956199646
 31
0.0
  0
LINE
  8
0
 62
0
 10
52.9706382751
 20
45.3936042786
 30
0.0
 11
53.0439491272
 21
45.7813568115
 31
0.0
  0
LINE
  8
0
 62
0
 10
53.0439491272
 20
45.7813568115
 30
0.0
 11
53.0657310486
 21
46.1753768921
 31
0.0
  0
LINE
  8
0
 62
0
 10
48.3259620667
 20
45.956199646
 30
0.0
 11
48.319103241
 21
46.2494430542
 31
0.0
  0
LINE
  8
0
 62
0
 10
48.319103241
 20
46.2494430542
 30
0.0
 11
48.3613166809
 21
46.5397109985
 31
0.0
  0
LINE
  8
0
 62
0
 10
48.3613166809
 20
46.5397109985
 30
0.0
 11
48.4514198303
 21
46.8188476562
 31
0.0
  0
LINE
  8
0
 62
0
 10
48.4514198303
 20
46.8188476562
 30
0.0
 11
48.5868797302
 21
47.0790176392
 31
0.0
  0
LINE
  8
0
 62
0
 10
48.5868797302
 20
47.0790176392
 30
0.0
 11
48.7638931274
 21
47.3129081726
 31
0.0
  0
LINE
  8
0
 62
0
 10
48.7638931274
 20
47.3129081726
 30
0.0
 11
48.977481842
 21
47.5139465332
 31
0.0
  0
LINE
  8
0
 62
0
 10
48.977481842
 20
47.5139465332
 30
0.0
 11
49.2216491699
 21
47.6764907837
 31
0.0
  0
LINE
  8
0
 62
0
 10
49.2216491699
 20
47.6764907837
 30
0.0
 11
49.4895324707
 21
47.7959671021
 31
0.0
  0
LINE
  8
0
 62
0
 10
49.4895324707
 20
47.7959671021
 30
0.0
 11
49.7736129761
 21
47.8690223694
 31
0.0
  0
LINE
  8
0
 62
0
 10
49.7736129761
 20
47.8690223694
 30
0.0
 11
50.0658988953
 21
47.8936042786
 31
0.0
  0
LINE
  8
0
 62
0
 10
50.0658988953
 20
47.8936042786
 30
0.0
 11
50.3581886292
 21
47.8690223694
 31
0.0
  0
LINE
  8
0
 62
0
 10
50.3581886292
 20
47.8690223694
 30
0.0
 11
50.6422691345
 21
47.7959671021
 31
0.0
  0
LINE
  8
0
 62
0
 10
50.6422691345
 20
47.7959671021
 30
0.0
 11
50.9101524353
 21
47.6764907837
 31
0.0
  0
LINE
  8
0
 62
0
 10
50.9101524353
 20
47.6764907837
 30
0.0
 11
51.1543197632
 21
47.5139465332
 31
0.0
  0
LINE
  8
0
 62
0
 10
51.1543197632
 20
47.5139465332
 30
0.0
 11
51.3679084778
 21
47.3129081726
 31
0.0
  0
LINE
  8
0
 62
0
 10
51.3679084778
 20
47.3129081726
 30
0.0
 11
51.544921875
 21
47.0790176392
 31
0.0
  0
LINE
  8
0
 62
0
 10
51.544921875
 20
47.0790176392
 30
0.0
 11
51.6803817749
 21
46.8188476562
 31
0.0
  0
LINE
  8
0
 62
0
 10
51.6803817749
 20
46.8188476562
 30
0.0
 11
51.7704811096
 21
46.5397109985
 31
0.0
  0
LINE
  8
0
 62
0
 10
51.7704811096
 20
46.5397109985
 30
0.0
 11
51.8126983643
 21
46.2494430542
 31
0.0
  0
LINE
  8
0
 62
0
 10
51.8126983643
 20
46.2494430542
 30
0.0
 11
51.8058357239
 21
45.956199646
 31
0.0
  0
LINE
  8
0
 62
0
 10
51.8058357239
 20
45.956199646
 30
0.0
 11
51.7500953674
 21
45.6682243347
 31
0.0
  0
LINE
  8
0
 62
0
 10
51.7500953674
 20
45.6682243347
 30
0.0
 11
51.6470413208
 21
45.3936042786
 31
0.0
  0
LINE
  8
0
 62
0
 10
53.0657310486
 20
46.1753768921
 30
0.0
 11
53.035610199
 21
46.5688476562
 31
0.0
  0
LINE
  8
0
 62
0
 10
53.035610199
 20
46.5688476562
 30
0.0
 11
52.9541015625
 21
46.9549598694
 31
0.0
  0
LINE
  8
0
 62
0
 10
52.9541015625
 20
46.9549598694
 30
0.0
 11
52.8226203918
 21
47.3270301819
 31
0.0
  0
LINE
  8
0
 62
0
 10
52.8226203918
 20
47.3270301819
 30
0.0
 11
52.6434364319
 21
47.6786270142
 31
0.0
  0
LINE
  8
0
 62
0
 10
52.6434364319
 20
47.6786270142
 30
0.0
 11
52.4196586609
 21
48.0036659241
 31
0.0
  0
LINE
  8
0
 62
0
 10
52.4196586609
 20
48.0036659241
 30
0.0
 11
52.1551513672
 21
48.2965164185
 31
0.0
  0
LINE
  8
0
 62
0
 10
52.1551513672
 20
48.2965164185
 30
0.0
 11
51.8544921875
 21
48.552116394
 31
0.0
  0
LINE
  8
0
 62
0
 10
51.8544921875
 20
48.552116394
 30
0.0
 11
51.5228881836
 21
48.7660446167
 31
0.0
  0
LINE
  8
0
 62
0
 10
51.5228881836
 20
48.7660446167
 30
0.0
 11
51.1660728455
 21
48.9345932007
 31
0.0
  0
LINE
  8
0
 62
0
 10
51.1660728455
 20
48.9345932007
 30
0.0
 11
50.790222168
 21
49.054851532
 31
0.0
  0
LINE
  8
0
 62
0
 10
50.790222168
 20
49.054851532
 30
0.0
 11
50.4018363953
 21
49.1247367859
 31
0.0
  0
LINE
  8
0
 62
0
 10
50.4018363953
 20
49.1247367859
 30
0.0
 11
50.0076408386
 21
49.1430397034
 31
0.0
  0
LINE
  8
0
 62
0
 10
50.0076408386
 20
49.1430397034
 30
0.0
 11
49.6144523621
 21
49.1094436646
 31
0.0
  0
LINE
  8
0
 62
0
 10
49.6144523621
 20
49.1094436646
 30
0.0
 11
49.2290763855
 21
49.0245285034
 31
0.0
  0
LINE
  8
0
 62
0
 10
49.2290763855
 20
49.0245285034
 30
0.0
 11
48.8581771851
 21
48.8897666931
 31
0.0
  0
LINE
  8
0
 62
0
 10
48.8581771851
 20
48.8897666931
 30
0.0
 11
48.5081748962
 21
48.707485199
 31
0.0
  0
LINE
  8
0
 62
0
 10
48.5081748962
 20
48.707485199
 30
0.0
 11
48.1851272583
 21
48.480846405
 31
0.0
  0
LINE
  8
0
 62
0
 10
48.1851272583
 20
48.480846405
 30
0.0
 11
47.8946228027
 21
48.213760376
 31
0.0
  0
LINE
  8
0
 62
0
 10
47.8946228027
 20
48.213760376
 30
0.0
 11
47.6416893005
 21
47.9108581543
 31
0.0
  0
LINE
  8
0
 62
0
 10
47.6416893005
 20
47.9108581543
 30
0.0
 11
47.4306983948
 21
47.5773773193
 31
0.0
  0
LINE
  8
0
 62
0
 10
47.4306983948
 20
47.5773773193
 30
0.0
 11
47.2653045654
 21
47.2190895081
 31
0.0
  0
LINE
  8
0
 62
0
 10
47.2653045654
 20
47.2190895081
 30
0.0
 11
47.1483726501
 21
46.8421897888
 31
0.0
  0
LINE
  8
0
 62
0
 10
47.1483726501
 20
46.8421897888
 30
0.0
 11
47.0819206238
 21
46.4532051086
 31
0.0
  0
LINE
  8
0
 62
0
 10
47.0819206238
 20
46.4532051086
 30
0.0
 11
47.0670967102
 21
46.0588607788
 31
0.0
  0
LINE
  8
0
 62
0
 10
47.0670967102
 20
46.0588607788
 30
0.0
 11
47.1041641235
 21
45.6659851074
 31
0.0
  0
LINE
  8
0
 62
0
 10
47.1041641235
 20
45.6659851074
 30
0.0
 11
47.1611633301
 21
45.3936042786
 31
0.0
  0
LINE
  8
0
 62
0
 10
19.2643966675
 20
50.3936042786
 30
0.0
 11
19.3377075195
 21
50.7813568115
 31
0.0
  0
LINE
  8
0
 62
0
 10
21.3596591949
 20
50.3936042786
 30
0.0
 11
19.2643966675
 21
50.3936042786
 31
0.0
  0
LINE
  8
0
 62
0
 10
21.3596591949
 20
47.8936042786
 30
0.0
 11
21.3596591949
 21
50.3936042786
 31
0.0
  0
LINE
  8
0
 62
0
 10
28.8596591949
 20
47.8936042786
 30
0.0
 11
21.3596591949
 21
47.8936042786
 31
0.0
  0
LINE
  8
0
 62
0
 10
28.8596591949
 20
45.3936042786
 30
0.0
 11
28.8596591949
 21
47.8936042786
 31
0.0
  0
LINE
  8
0
 62
0
 10
31.3596591949
 20
45.3936042786
 30
0.0
 11
28.8596591949
 21
45.3936042786
 31
0.0
  0
LINE
  8
0
 62
0
 10
31.3596591949
 20
37.8936042786
 30
0.0
 11
31.3596591949
 21
45.3936042786
 31
0.0
  0
LINE
  8
0
 62
0
 10
26.3596591949
 20
37.8936042786
 30
0.0
 11
31.3596591949
 21
37.8936042786
 31
0.0
  0
LINE
  8
0
 62
0
 10
26.3596591949
 20
35.3936042786
 30
0.0
 11
26.3596591949
 21
37.8936042786
 31
0.0
  0
LINE
  8
0
 62
0
 10
28.8596591949
 20
35.3936042786
 30
0.0
 11
26.3596591949
 21
35.3936042786
 31
0.0
  0
LINE
  8
0
 62
0
 10
28.8596591949
 20
32.8936042786
 30
0.0
 11
28.8596591949
 21
35.3936042786
 31
0.0
  0
LINE
  8
0
 62
0
 10
26.3596591949
 20
32.8936042786
 30
0.0
 11
28.8596591949
 21
32.8936042786
 31
0.0
  0
LINE
  8
0
 62
0
 10
26.3596591949
 20
30.3936042786
 30
0.0
 11
26.3596591949
 21
32.8936042786
 31
0.0
  0
LINE
  8
0
 62
0
 10
21.3596591949
 20
30.3936042786
 30
0.0
 11
26.3596591949
 21
30.3936042786
 31
0.0
  0
LINE
  8
0
 62
0
 10
21.3596591949
 20
32.8936042786
 30
0.0
 11
21.3596591949
 21
30.3936042786
 31
0.0
  0
LINE
  8
0
 62
0
 10
23.8596591949
 20
32.8936042786
 30
0.0
 11
21.3596591949
 21
32.8936042786
 31
0.0
  0
LINE
  8
0
 62
0
 10
23.8596591949
 20
35.3936042786
 30
0.0
 11
23.8596591949
 21
32.8936042786
 31
0.0
  0
LINE
  8
0
 62
0
 10
18.8596591949
 20
35.3936042786
 30
0.0
 11
23.8596591949
 21
35.3936042786
 31
0.0
  0
LINE
  8
0
 62
0
 10
18.8596591949
 20
37.8936042786
 30
0.0
 11
18.8596591949
 21
35.3936042786
 31
0.0
  0
LINE
  8
0
 62
0
 10
13.8596582413
 20
37.8936042786
 30
0.0
 11
18.8596591949
 21
37.8936042786
 31
0.0
  0
LINE
  8
0
 62
0
 10
13.8596582413
 20
35.3936042786
 30
0.0
 11
13.8596582413
 21
37.8936042786
 31
0.0
  0
LINE
  8
0
 62
0
 10
8.85965824127
 20
35.3936042786
 30
0.0
 11
13.8596582413
 21
35.3936042786
 31
0.0
  0
LINE
  8
0
 62
0
 10
8.85965824127
 20
32.8936042786
 30
0.0
 11
8.85965824127
 21
35.3936042786
 31
0.0
  0
LINE
  8
0
 62
0
 10
11.3596582413
 20
32.8936042786
 30
0.0
 11
8.85965824127
 21
32.8936042786
 31
0.0
  0
LINE
  8
0
 62
0
 10
11.3596582413
 20
30.3936042786
 30
0.0
 11
11.3596582413
 21
32.8936042786
 31
0.0
  0
LINE
  8
0
 62
0
 10
6.35965871811
 20
30.3936042786
 30
0.0
 11
11.3596582413
 21
30.3936042786
 31
0.0
  0
LINE
  8
0
 62
0
 10
6.35965871811
 20
32.8936042786
 30
0.0
 11
6.35965871811
 21
30.3936042786
 31
0.0
  0
LINE
  8
0
 62
0
 10
3.85965871811
 20
32.8936042786
 30
0.0
 11
6.35965871811
 21
32.8936042786
 31
0.0
  0
LINE
  8
0
 62
0
 10
3.85965871811
 20
35.3936042786
 30
0.0
 11
3.85965871811
 21
32.8936042786
 31
0.0
  0
LINE
  8
0
 62
0
 10
6.35965871811
 20
35.3936042786
 30
0.0
 11
3.85965871811
 21
35.3936042786
 31
0.0
  0
LINE
  8
0
 62
0
 10
6.35965871811
 20
37.8936042786
 30
0.0
 11
6.35965871811
 21
35.3936042786
 31
0.0
  0
LINE
  8
0
 62
0
 10
1.3596585989
 20
37.8936042786
 30
0.0
 11
6.35965871811
 21
37.8936042786
 31
0.0
  0
LINE
  8
0
 62
0
 10
1.3596585989
 20
45.3936042786
 30
0.0
 11
1.3596585989
 21
37.8936042786
 31
0.0
  0
LINE
  8
0
 62
0
 10
3.85965871811
 20
45.3936042786
 30
0.0
 11
1.3596585989
 21
45.3936042786
 31
0.0
  0
LINE
  8
0
 62
0
 10
3.85965871811
 20
47.8936042786
 30
0.0
 11
3.85965871811
 21
45.3936042786
 31
0.0
  0
LINE
  8
0
 62
0
 10
11.3596582413
 20
47.8936042786
 30
0.0
 11
3.85965871811
 21
47.8936042786
 31
0.0
  0
LINE
  8
0
 62
0
 10
11.3596582413
 20
50.3936042786
 30
0.0
 11
11.3596582413
 21
47.8936042786
 31
0.0
  0
LINE
  8
0
 62
0
 10
13.4549207687
 20
50.3936042786
 30
0.0
 11
11.3596582413
 21
50.3936042786
 31
0.0
  0
LINE
  8
0
 62
0
 10
13.3979225159
 20
50.6659851074
 30
0.0
 11
13.4549207687
 21
50.3936042786
 31
0.0
  0
LINE
  8
0
 62
0
 10
13.3608560562
 20
51.0588607788
 30
0.0
 11
13.3979225159
 21
50.6659851074
 31
0.0
  0
LINE
  8
0
 62
0
 10
13.3756771088
 20
51.4532051086
 30
0.0
 11
13.3608560562
 21
51.0588607788
 31
0.0
  0
LINE
  8
0
 62
0
 10
13.4421291351
 20
51.8421897888
 30
0.0
 11
13.3756771088
 21
51.4532051086
 31
0.0
  0
LINE
  8
0
 62
0
 10
13.5590639114
 20
52.2190895081
 30
0.0
 11
13.4421291351
 21
51.8421897888
 31
0.0
  0
LINE
  8
0
 62
0
 10
13.7244567871
 20
52.5773773193
 30
0.0
 11
13.5590639114
 21
52.2190895081
 31
0.0
  0
LINE
  8
0
 62
0
 10
13.9354457855
 20
52.9108581543
 30
0.0
 11
13.7244567871
 21
52.5773773193
 31
0.0
  0
LINE
  8
0
 62
0
 10
14.1883811951
 20
53.213760376
 30
0.0
 11
13.9354457855
 21
52.9108581543
 31
0.0
  0
LINE
  8
0
 62
0
 10
14.4788856506
 20
53.480846405
 30
0.0
 11
14.1883811951
 21
53.213760376
 31
0.0
  0
LINE
  8
0
 62
0
 10
14.8019332886
 20
53.707485199
 30
0.0
 11
14.4788856506
 21
53.480846405
 31
0.0
  0
LINE
  8
0
 62
0
 10
15.1519346237
 20
53.8897666931
 30
0.0
 11
14.8019332886
 21
53.707485199
 31
0.0
  0
LINE
  8
0
 62
0
 10
15.5228328705
 20
54.0245285034
 30
0.0
 11
15.1519346237
 21
53.8897666931
 31
0.0
  0
LINE
  8
0
 62
0
 10
15.9082098007
 20
54.1094436646
 30
0.0
 11
15.5228328705
 21
54.0245285034
 31
0.0
  0
LINE
  8
0
 62
0
 10
16.301399231
 20
54.1430397034
 30
0.0
 11
15.9082098007
 21
54.1094436646
 31
0.0
  0
LINE
  8
0
 62
0
 10
16.6955947876
 20
54.1247367859
 30
0.0
 11
16.301399231
 21
54.1430397034
 31
0.0
  0
LINE
  8
0
 62
0
 10
17.0839805603
 20
54.054851532
 30
0.0
 11
16.6955947876
 21
54.1247367859
 31
0.0
  0
LINE
  8
0
 62
0
 10
17.4598312378
 20
53.9345932007
 30
0.0
 11
17.0839805603
 21
54.054851532
 31
0.0
  0
LINE
  8
0
 62
0
 10
17.8166465759
 20
53.7660446167
 30
0.0
 11
17.4598312378
 21
53.9345932007
 31
0.0
  0
LINE
  8
0
 62
0
 10
18.1482524872
 20
53.552116394
 30
0.0
 11
17.8166465759
 21
53.7660446167
 31
0.0
  0
LINE
  8
0
 62
0
 10
18.4489078522
 20
53.2965164185
 30
0.0
 11
18.1482524872
 21
53.552116394
 31
0.0
  0
LINE
  8
0
 62
0
 10
18.7134151459
 20
53.0036659241
 30
0.0
 11
18.4489078522
 21
53.2965164185
 31
0.0
  0
LINE
  8
0
 62
0
 10
18.9371967316
 20
52.6786270142
 30
0.0
 11
18.7134151459
 21
53.0036659241
 31
0.0
  0
LINE
  8
0
 62
0
 10
19.1163768768
 20
52.3270301819
 30
0.0
 11
18.9371967316
 21
52.6786270142
 31
0.0
  0
LINE
  8
0
 62
0
 10
19.2478599548
 20
51.9549598694
 30
0.0
 11
19.1163768768
 21
52.3270301819
 31
0.0
  0
LINE
  8
0
 62
0
 10
19.329366684
 20
51.5688476562
 30
0.0
 11
19.2478599548
 21
51.9549598694
 31
0.0
  0
LINE
  8
0
 62
0
 10
19.3594894409
 20
51.1753768921
 30
0.0
 11
19.329366684
 21
51.5688476562
 31
0.0
  0
LINE
  8
0
 62
0
 10
19.3377075195
 20
50.7813568115
 30
0.0
 11
19.3594894409
 21
51.1753768921
 31
0.0
  0
LINE
  8
0
 62
0
 10
18.8596591949
 20
40.3936042786
 30
0.0
 11
23.8596591949
 21
40.3936042786
 31
0.0
  0
LINE
  8
0
 62
0
 10
18.8596591949
 20
42.8936042786
 30
0.0
 11
18.8596591949
 21
40.3936042786
 31
0.0
  0
LINE
  8
0
 62
0
 10
23.8596591949
 20
42.8936042786
 30
0.0
 11
18.8596591949
 21
42.8936042786
 31
0.0
  0
LINE
  8
0
 62
0
 10
23.8596591949
 20
40.3936042786
 30
0.0
 11
23.8596591949
 21
42.8936042786
 31
0.0
  0
LINE
  8
0
 62
0
 10
8.85965824127
 20
42.8936042786
 30
0.0
 11
8.85965824127
 21
40.3936042786
 31
0.0
  0
LINE
  8
0
 62
0
 10
13.8596582413
 20
42.8936042786
 30
0.0
 11
8.85965824127
 21
42.8936042786
 31
0.0
  0
LINE
  8
0
 62
0
 10
13.8596582413
 20
40.3936042786
 30
0.0
 11
13.8596582413
 21
42.8936042786
 31
0.0
  0
LINE
  8
0
 62
0
 10
8.85965824127
 20
40.3936042786
 30
0.0
 11
13.8596582413
 21
40.3936042786
 31
0.0
  0
LINE
  8
0
 62
0
 10
14.7785196304
 20
50.3936042786
 30
0.0
 11
14.6754627228
 21
50.6682243347
 31
0.0
  0
LINE
  8
0
 62
0
 10
14.6754627228
 20
50.6682243347
 30
0.0
 11
14.6197214127
 21
50.956199646
 31
0.0
  0
LINE
  8
0
 62
0
 10
14.6197214127
 20
50.956199646
 30
0.0
 11
14.6128616333
 21
51.2494430542
 31
0.0
  0
LINE
  8
0
 62
0
 10
14.6128616333
 20
51.2494430542
 30
0.0
 11
14.6550760269
 21
51.5397109985
 31
0.0
  0
LINE
  8
0
 62
0
 10
14.6550760269
 20
51.5397109985
 30
0.0
 11
14.7451791763
 21
51.8188476562
 31
0.0
  0
LINE
  8
0
 62
0
 10
14.7451791763
 20
51.8188476562
 30
0.0
 11
14.8806390762
 21
52.0790176392
 31
0.0
  0
LINE
  8
0
 62
0
 10
14.8806390762
 20
52.0790176392
 30
0.0
 11
15.0576496124
 21
52.3129081726
 31
0.0
  0
LINE
  8
0
 62
0
 10
15.0576496124
 20
52.3129081726
 30
0.0
 11
15.2712392807
 21
52.5139465332
 31
0.0
  0
LINE
  8
0
 62
0
 10
15.2712392807
 20
52.5139465332
 30
0.0
 11
15.5154056549
 21
52.6764907837
 31
0.0
  0
LINE
  8
0
 62
0
 10
15.5154056549
 20
52.6764907837
 30
0.0
 11
15.7832918167
 21
52.7959671021
 31
0.0
  0
LINE
  8
0
 62
0
 10
15.7832918167
 20
52.7959671021
 30
0.0
 11
16.0673694611
 21
52.8690223694
 31
0.0
  0
LINE
  8
0
 62
0
 10
16.0673694611
 20
52.8690223694
 30
0.0
 11
16.3596591949
 21
52.8936042786
 31
0.0
  0
LINE
  8
0
 62
0
 10
16.3596591949
 20
52.8936042786
 30
0.0
 11
16.6519470215
 21
52.8690223694
 31
0.0
  0
LINE
  8
0
 62
0
 10
16.6519470215
 20
52.8690223694
 30
0.0
 11
16.9360256195
 21
52.7959671021
 31
0.0
  0
LINE
  8
0
 62
0
 10
16.9360256195
 20
52.7959671021
 30
0.0
 11
17.2039108276
 21
52.6764907837
 31
0.0
  0
LINE
  8
0
 62
0
 10
17.2039108276
 20
52.6764907837
 30
0.0
 11
17.4480781555
 21
52.5139465332
 31
0.0
  0
LINE
  8
0
 62
0
 10
17.4480781555
 20
52.5139465332
 30
0.0
 11
17.6616668701
 21
52.3129081726
 31
0.0
  0
LINE
  8
0
 62
0
 10
17.6616668701
 20
52.3129081726
 30
0.0
 11
17.83867836
 21
52.0790176392
 31
0.0
  0
LINE
  8
0
 62
0
 10
17.83867836
 20
52.0790176392
 30
0.0
 11
17.9741382599
 21
51.8188476562
 31
0.0
  0
LINE
  8
0
 62
0
 10
17.9741382599
 20
51.8188476562
 30
0.0
 11
18.0642414093
 21
51.5397109985
 31
0.0
  0
LINE
  8
0
 62
0
 10
18.0642414093
 20
51.5397109985
 30
0.0
 11
18.1064548492
 21
51.2494430542
 31
0.0
  0
LINE
  8
0
 62
0
 10
18.1064548492
 20
51.2494430542
 30
0.0
 11
18.0995960236
 21
50.956199646
 31
0.0
  0
LINE
  8
0
 62
0
 10
18.0995960236
 20
50.956199646
 30
0.0
 11
18.0438537598
 21
50.6682243347
 31
0.0
  0
LINE
  8
0
 62
0
 10
18.0438537598
 20
50.6682243347
 30
0.0
 11
17.9407978058
 21
50.3936042786
 31
0.0
  0
LINE
  8
0
 62
0
 10
17.9407978058
 20
50.3936042786
 30
0.0
 11
14.7785196304
 21
50.3936042786
 31
0.0
  0
ENDBLK
  0
ENDSEC
  0
SECTION
  2
ENTITIES
  0
INSERT
  2
SPACE_INVADER_EARRINGS_REPAIRED2Z001001001
  8
0
 10
0.0
 20
0.0
 30
0.0
  0
ENDSEC
  0
EOF
